<svg xmlns="http://www.w3.org/2000/svg" width="280" height="61" viewBox="0 0 280 61" fill="none"><path d="M9.69238 56.3477C12.9574 56.3477 15.9595 56.2093 18.6987 55.9326C21.438 55.6559 23.8314 55.3377 25.8789 54.978C28.2585 54.5907 30.4305 54.1341 32.395 53.6084L31.1914 60.332C30.8594 60.3044 30.3613 60.2767 29.6973 60.249C29.0332 60.2214 28.2861 60.1937 27.4561 60.166C26.6536 60.1383 25.7959 60.1107 24.8828 60.083C23.9974 60.083 23.1535 60.0692 22.3511 60.0415C21.5487 60.0415 20.8293 60.0277 20.1929 60C19.5841 60 19.1414 60 18.8647 60H0.935059V59.834C1.10107 59.2529 1.25326 58.5335 1.3916 57.6758C1.55762 56.818 1.69596 55.7528 1.80664 54.48C1.91732 53.2072 2.00033 51.6992 2.05566 49.9561C2.111 48.1852 2.13867 46.1239 2.13867 43.772V16.7529C2.13867 14.401 2.111 12.3535 2.05566 10.6104C2.00033 8.83952 1.91732 7.31771 1.80664 6.04492C1.69596 4.74447 1.55762 3.66536 1.3916 2.80762C1.25326 1.94987 1.10107 1.23047 0.935059 0.649414V0.483398H10.896V0.649414C10.73 1.23047 10.564 1.94987 10.3979 2.80762C10.2596 3.66536 10.1351 4.74447 10.0244 6.04492C9.94141 7.31771 9.8584 8.83952 9.77539 10.6104C9.72005 12.3535 9.69238 14.401 9.69238 16.7529V56.3477ZM47.4609 45.4736C47.4609 49.126 48.1803 51.8099 49.6191 53.5254C51.0856 55.2409 53.0501 56.0986 55.5127 56.0986C56.3981 56.0986 57.3942 55.9188 58.501 55.5591C59.6077 55.1717 60.7422 54.6737 61.9043 54.0649C63.0941 53.4285 64.27 52.6953 65.4321 51.8652C66.6219 51.0352 67.7148 50.1497 68.7109 49.209C68.7663 48.4066 68.7939 47.5627 68.7939 46.6772C68.7939 45.7642 68.7939 44.7957 68.7939 43.772V33.728C68.7939 31.3761 68.7524 29.3286 68.6694 27.5854C68.6141 25.8146 68.5311 24.2928 68.4204 23.02C68.3374 21.7472 68.2129 20.682 68.0469 19.8242C67.9085 18.9665 67.7563 18.2471 67.5903 17.666V17.5H77.1777V17.666C77.0117 18.2471 76.8595 18.9665 76.7212 19.8242C76.5828 20.682 76.4583 21.7472 76.3477 23.02C76.237 24.2928 76.154 25.8146 76.0986 27.5854C76.0433 29.3286 76.0156 31.3761 76.0156 33.728V43.772C76.0156 46.1239 76.0433 48.1852 76.0986 49.9561C76.154 51.6992 76.237 53.2072 76.3477 54.48C76.4583 55.7528 76.5828 56.818 76.7212 57.6758C76.8595 58.5335 77.0117 59.2529 77.1777 59.834V60H67.5903V59.834C67.7563 59.1423 67.9224 58.2568 68.0884 57.1777C68.2821 56.0986 68.4204 54.6875 68.5034 52.9443C67.369 53.9128 66.1377 54.8674 64.8096 55.8081C63.5091 56.7489 62.1395 57.5928 60.7007 58.3398C59.2896 59.0869 57.8507 59.6818 56.3843 60.1245C54.9455 60.5949 53.5205 60.8301 52.1094 60.8301C49.9512 60.8301 48.1112 60.4565 46.5894 59.7095C45.0952 58.9624 43.8639 57.9801 42.8955 56.7627C41.9548 55.5452 41.263 54.1618 40.8203 52.6123C40.4053 51.0628 40.1978 49.4718 40.1978 47.8394V33.728C40.1978 31.3761 40.1701 29.3286 40.1147 27.5854C40.0594 25.8146 39.9764 24.2928 39.8657 23.02C39.755 21.7472 39.6305 20.682 39.4922 19.8242C39.3538 18.9665 39.2017 18.2471 39.0356 17.666V17.5H48.623V17.666C48.457 18.2471 48.3049 18.9665 48.1665 19.8242C48.0282 20.682 47.9036 21.7472 47.793 23.02C47.6823 24.2928 47.5993 25.8146 47.5439 27.5854C47.4886 29.3286 47.4609 31.3761 47.4609 33.728V45.4736ZM116.482 32.0264C116.482 30.2002 116.288 28.623 115.901 27.2949C115.541 25.9668 115.002 24.8739 114.282 24.0161C113.59 23.1307 112.747 22.4805 111.75 22.0654C110.754 21.6227 109.648 21.4014 108.43 21.4014C107.6 21.4014 106.673 21.5674 105.649 21.8994C104.626 22.2314 103.56 22.688 102.454 23.269C101.375 23.8224 100.282 24.4727 99.1748 25.2197C98.0957 25.9668 97.0719 26.7692 96.1035 27.627C96.0482 28.5124 96.0205 29.467 96.0205 30.4907C96.0205 31.4868 96.0205 32.5659 96.0205 33.728V43.772C96.0205 46.1239 96.0482 48.1852 96.1035 49.9561C96.1589 51.6992 96.2419 53.2072 96.3525 54.48C96.4632 55.7528 96.5877 56.818 96.7261 57.6758C96.8644 58.5335 97.0166 59.2529 97.1826 59.834V60H87.5952V59.834C87.7612 59.2529 87.9134 58.5335 88.0518 57.6758C88.2178 56.818 88.3423 55.7528 88.4253 54.48C88.536 53.2072 88.619 51.6992 88.6743 49.9561C88.7573 48.1852 88.7988 46.1239 88.7988 43.772V33.728C88.7988 31.3761 88.7573 29.3286 88.6743 27.5854C88.619 25.8146 88.536 24.2928 88.4253 23.02C88.3423 21.7472 88.2178 20.682 88.0518 19.8242C87.9134 18.9665 87.7612 18.2471 87.5952 17.666V17.5H97.1826V17.666C96.9613 18.3024 96.7814 19.1187 96.6431 20.1147C96.5324 21.0832 96.4079 22.3145 96.2695 23.8086C97.3763 22.9232 98.5661 22.0516 99.8389 21.1938C101.112 20.3361 102.412 19.5752 103.74 18.9111C105.096 18.2471 106.452 17.7075 107.808 17.2925C109.163 16.8774 110.505 16.6699 111.833 16.6699C113.411 16.6699 114.808 16.8774 116.025 17.2925C117.243 17.7075 118.308 18.2747 119.221 18.9941C120.134 19.7135 120.895 20.5575 121.504 21.5259C122.14 22.4943 122.625 23.5319 122.957 24.6387C124.091 23.6702 125.322 22.7157 126.65 21.7749C128.006 20.8065 129.39 19.9487 130.801 19.2017C132.24 18.4546 133.692 17.8459 135.159 17.3755C136.653 16.9051 138.105 16.6699 139.517 16.6699C141.675 16.6699 143.501 17.0435 144.995 17.7905C146.517 18.5376 147.748 19.5199 148.689 20.7373C149.657 21.9548 150.349 23.3521 150.764 24.9292C151.207 26.4787 151.428 28.0558 151.428 29.6606V43.772C151.428 46.1239 151.456 48.1852 151.511 49.9561C151.567 51.6992 151.65 53.2072 151.76 54.48C151.871 55.7528 151.995 56.818 152.134 57.6758C152.3 58.5335 152.466 59.2529 152.632 59.834V60H143.003V59.834C143.169 59.2529 143.321 58.5335 143.459 57.6758C143.625 56.818 143.764 55.7528 143.875 54.48C143.985 53.2072 144.068 51.6992 144.124 49.9561C144.179 48.1852 144.207 46.1239 144.207 43.772V32.0264C144.207 28.374 143.473 25.6901 142.007 23.9746C140.54 22.2591 138.576 21.4014 136.113 21.4014C135.256 21.4014 134.301 21.5674 133.25 21.8994C132.226 22.2314 131.16 22.688 130.054 23.269C128.947 23.8501 127.84 24.528 126.733 25.3027C125.627 26.0498 124.589 26.8522 123.621 27.71C123.676 28.042 123.704 28.374 123.704 28.7061C123.704 29.0381 123.704 29.3563 123.704 29.6606V43.772C123.704 46.1239 123.731 48.1852 123.787 49.9561C123.87 51.6992 123.953 53.2072 124.036 54.48C124.146 55.7528 124.271 56.818 124.409 57.6758C124.575 58.5335 124.741 59.2529 124.907 59.834V60H115.32V59.834C115.486 59.2529 115.638 58.5335 115.776 57.6758C115.915 56.818 116.039 55.7528 116.15 54.48C116.261 53.2072 116.344 51.6992 116.399 49.9561C116.454 48.1852 116.482 46.1239 116.482 43.772V32.0264ZM160.435 38.667C160.435 35.5404 161.016 32.6489 162.178 29.9927C163.34 27.3088 164.931 24.9845 166.951 23.02C168.998 21.0555 171.405 19.5199 174.172 18.4131C176.939 17.3063 179.914 16.7529 183.096 16.7529C186.222 16.7529 189.155 17.2786 191.895 18.3301C194.661 19.3538 197.069 20.8203 199.116 22.7295C201.164 24.6387 202.769 26.9629 203.931 29.7021C205.12 32.4414 205.715 35.5127 205.715 38.916C205.715 41.766 205.217 44.5052 204.221 47.1338C203.225 49.7624 201.759 52.0866 199.822 54.1064C197.885 56.1263 195.505 57.745 192.683 58.9624C189.889 60.1522 186.665 60.7471 183.013 60.7471C179.914 60.7471 176.995 60.2352 174.255 59.2114C171.516 58.1877 169.123 56.7212 167.075 54.812C165.028 52.9028 163.409 50.5924 162.219 47.8809C161.029 45.1416 160.435 42.0703 160.435 38.667ZM183.967 57.7173C185.932 57.7173 187.73 57.3299 189.363 56.5552C191.023 55.7804 192.448 54.6598 193.638 53.1934C194.827 51.7269 195.754 49.9422 196.418 47.8394C197.083 45.7365 197.415 43.3569 197.415 40.7007C197.415 37.7124 197.096 34.9455 196.46 32.3999C195.824 29.8267 194.869 27.6131 193.596 25.7593C192.351 23.8778 190.774 22.4113 188.865 21.3599C186.956 20.3084 184.728 19.7827 182.183 19.7827C180.218 19.7827 178.42 20.1701 176.787 20.9448C175.155 21.6919 173.73 22.7848 172.512 24.2236C171.322 25.6624 170.396 27.4333 169.731 29.5361C169.067 31.6113 168.735 33.9771 168.735 36.6333C168.735 39.6216 169.054 42.4023 169.69 44.9756C170.354 47.5488 171.322 49.79 172.595 51.6992C173.868 53.5807 175.445 55.061 177.327 56.1401C179.236 57.1916 181.449 57.7173 183.967 57.7173ZM215.054 33.728C215.054 31.3761 215.012 29.3286 214.929 27.5854C214.874 25.8146 214.791 24.2928 214.68 23.02C214.597 21.7472 214.473 20.682 214.307 19.8242C214.168 18.9665 214.016 18.2471 213.85 17.666V17.5H223.438V17.666C223.216 18.3024 223.022 19.0771 222.856 19.9902C222.718 20.9033 222.607 22.0793 222.524 23.5181C223.548 22.6603 224.613 21.8164 225.72 20.9863C226.827 20.1562 227.961 19.423 229.124 18.7866C230.286 18.1502 231.462 17.6383 232.651 17.251C233.869 16.8636 235.086 16.6699 236.304 16.6699C237.051 16.6699 237.701 16.7114 238.254 16.7944C238.808 16.8498 239.306 16.9466 239.749 17.085C240.191 17.1956 240.592 17.334 240.952 17.5C241.312 17.6383 241.658 17.7767 241.99 17.915L239.956 25.8423L239.25 25.6763C238.918 24.4588 238.296 23.4904 237.383 22.771C236.47 22.0239 235.225 21.6504 233.647 21.6504C232.79 21.6504 231.89 21.8026 230.95 22.1069C230.009 22.4113 229.054 22.8402 228.086 23.3936C227.118 23.9193 226.149 24.5418 225.181 25.2612C224.212 25.953 223.271 26.6862 222.358 27.4609C222.303 28.2633 222.275 29.1349 222.275 30.0757C222.275 31.0164 222.275 32.0125 222.275 33.064V43.772C222.275 46.1239 222.303 48.1852 222.358 49.9561C222.414 51.6992 222.497 53.2072 222.607 54.48C222.718 55.7528 222.843 56.818 222.981 57.6758C223.119 58.5335 223.271 59.2529 223.438 59.834V60H213.85V59.834C214.016 59.2529 214.168 58.5335 214.307 57.6758C214.473 56.818 214.597 55.7528 214.68 54.48C214.791 53.2072 214.874 51.6992 214.929 49.9561C215.012 48.1852 215.054 46.1239 215.054 43.772V33.728ZM243.359 47.7563C243.359 45.5705 243.802 43.6751 244.688 42.0703C245.601 40.4655 246.804 39.0959 248.298 37.9614C249.792 36.827 251.494 35.9139 253.403 35.2222C255.312 34.5028 257.291 33.9494 259.338 33.562C261.386 33.147 263.406 32.8703 265.398 32.7319C267.39 32.5659 269.216 32.4691 270.876 32.4414V30.3247C270.876 28.4985 270.641 26.9214 270.171 25.5933C269.701 24.2651 269.036 23.1722 268.179 22.3145C267.321 21.429 266.283 20.7788 265.066 20.3638C263.876 19.9211 262.562 19.6997 261.123 19.6997C260.127 19.6997 259.145 19.7827 258.176 19.9487C257.208 20.1147 256.198 20.3914 255.146 20.7788C254.123 21.1662 253.03 21.6919 251.868 22.356C250.733 23.02 249.502 23.8639 248.174 24.8877L247.759 24.6387L250.581 18.7866C251.494 18.3716 252.393 18.0396 253.279 17.7905C254.164 17.5138 255.063 17.2925 255.977 17.1265C256.89 16.9604 257.817 16.8498 258.757 16.7944C259.726 16.7114 260.736 16.6699 261.787 16.6699C264.692 16.6699 267.169 17.0296 269.216 17.749C271.292 18.4408 272.979 19.4092 274.28 20.6543C275.608 21.8717 276.576 23.3105 277.185 24.9707C277.794 26.6032 278.098 28.3602 278.098 30.2417V43.772C278.098 46.1239 278.126 48.1852 278.181 49.9561C278.264 51.6992 278.347 53.2072 278.43 54.48C278.541 55.7528 278.665 56.818 278.804 57.6758C278.97 58.5335 279.136 59.2529 279.302 59.834V60H270.129V59.834C270.268 59.3913 270.365 58.8932 270.42 58.3398C270.503 57.7865 270.572 57.1224 270.627 56.3477C270.046 56.8457 269.355 57.3576 268.552 57.8833C267.778 58.409 266.878 58.8932 265.854 59.3359C264.858 59.751 263.738 60.083 262.493 60.332C261.275 60.6087 259.933 60.7471 258.467 60.7471C253.652 60.7471 249.931 59.6265 247.302 57.3853C244.674 55.1164 243.359 51.9067 243.359 47.7563ZM270.876 35.6787C268.359 35.7064 265.938 35.8586 263.613 36.1353C261.289 36.3843 259.228 36.9238 257.429 37.7539C255.658 38.584 254.233 39.7738 253.154 41.3232C252.103 42.8451 251.577 44.8787 251.577 47.4243C251.577 50.6893 252.393 53.1795 254.026 54.895C255.658 56.6105 257.913 57.4683 260.791 57.4683C262.119 57.4683 263.323 57.2884 264.402 56.9287C265.509 56.5413 266.477 56.071 267.307 55.5176C268.165 54.9365 268.884 54.314 269.465 53.6499C270.046 52.9582 270.489 52.2941 270.793 51.6577C270.849 50.6063 270.876 49.4442 270.876 48.1714C270.876 46.8709 270.876 45.4045 270.876 43.772V35.6787Z" fill="#343F1E"></path></svg>