<svg xmlns="http://www.w3.org/2000/svg" width="136" height="40" viewBox="0 0 136 40" fill="none"><g clip-path="url(#clip0_2002_8)"><path d="M15.4158 33.2811L4.95375 14.2553H16.5983L11.5087 16.2928L22.0504 33.2811H15.4158ZM36.1058 8.13734L38.3246 0.780258C38.3246 0.780258 25.2017 28.1403 22.9783 31.8048L19.6717 26.4765L34.4283 6.14859C30.7883 2.35901 25.6708 -0.000991821 20.0021 -0.000991821C8.955 -0.000991821 0 8.95401 0 19.9998C0 31.0469 8.955 40.0019 20.0021 40.0019C31.0479 40.0019 40.0029 31.0469 40.0029 19.9998C40.0029 15.5598 38.5546 11.4569 36.1058 8.13734Z" fill="#EF233C"></path></g><path d="M54.8968 28L50.2648 12.352H54.0088L55.7848 19.648C55.9288 20.208 56.0648 20.768 56.1928 21.328C56.3368 21.888 56.4728 22.44 56.6008 22.984C56.7448 23.528 56.8968 24.088 57.0568 24.664H57.1528C57.2968 24.088 57.4328 23.528 57.5608 22.984C57.6888 22.44 57.8248 21.888 57.9688 21.328C58.1128 20.768 58.2568 20.208 58.4008 19.648L60.3448 12.352H63.9448L59.1448 28H54.8968ZM66.0967 28V12.352H75.8887V15.328H69.6247V18.472H74.9527V21.424H69.6247V25.024H76.1287V28H66.0967ZM79.7252 28V12.352H83.2532V25.024H89.4452V28H79.7252ZM98.1199 28.288C96.7119 28.288 95.4719 27.96 94.3999 27.304C93.3439 26.648 92.5119 25.712 91.9039 24.496C91.3119 23.28 91.0159 21.816 91.0159 20.104C91.0159 18.408 91.3119 16.96 91.9039 15.76C92.5119 14.56 93.3439 13.648 94.3999 13.024C95.4719 12.384 96.7119 12.064 98.1199 12.064C99.5279 12.064 100.768 12.384 101.84 13.024C102.912 13.648 103.744 14.56 104.336 15.76C104.928 16.96 105.224 18.408 105.224 20.104C105.224 21.816 104.928 23.28 104.336 24.496C103.744 25.712 102.912 26.648 101.84 27.304C100.768 27.96 99.5279 28.288 98.1199 28.288ZM98.1199 25.24C98.8399 25.24 99.4559 25.032 99.9679 24.616C100.496 24.184 100.896 23.584 101.168 22.816C101.456 22.048 101.6 21.144 101.6 20.104C101.6 19.064 101.456 18.176 101.168 17.44C100.896 16.688 100.496 16.12 99.9679 15.736C99.4559 15.336 98.8399 15.136 98.1199 15.136C97.4159 15.136 96.7999 15.336 96.2719 15.736C95.7439 16.12 95.3359 16.688 95.0479 17.44C94.7759 18.176 94.6399 19.064 94.6399 20.104C94.6399 21.144 94.7759 22.048 95.0479 22.816C95.3359 23.584 95.7439 24.184 96.2719 24.616C96.7999 25.032 97.4159 25.24 98.1199 25.24ZM108.646 28V12.352H114.286C115.39 12.352 116.398 12.504 117.31 12.808C118.222 13.096 118.95 13.6 119.494 14.32C120.038 15.024 120.31 15.992 120.31 17.224C120.31 18.424 120.038 19.4 119.494 20.152C118.95 20.904 118.222 21.464 117.31 21.832C116.398 22.184 115.39 22.36 114.286 22.36H112.174V28H108.646ZM112.174 19.552H113.998C114.926 19.552 115.63 19.36 116.11 18.976C116.606 18.576 116.854 17.992 116.854 17.224C116.854 16.456 116.606 15.92 116.11 15.616C115.63 15.312 114.926 15.16 113.998 15.16H112.174V19.552ZM117.118 28L113.638 21.448L116.086 19.168L121.078 28H117.118ZM121.665 28L126.561 12.352H130.785L135.705 28H131.961L129.921 20.08C129.697 19.296 129.481 18.464 129.273 17.584C129.065 16.704 128.857 15.856 128.649 15.04H128.553C128.377 15.856 128.185 16.704 127.977 17.584C127.769 18.464 127.553 19.296 127.329 20.08L125.265 28H121.665ZM124.881 24.28V21.52H132.417V24.28H124.881Z" fill="#191516"></path><defs><clipPath id="clip0_2002_8"><rect width="40" height="40" fill="white"></rect></clipPath></defs></svg>